<svg height="512" viewBox="0 0 48 58" width="512" xmlns="http://www.w3.org/2000/svg"><g id="032---Employee-Details" fill="none"><path id="Shape" d="m28.5 52h-25.5c-1.65685425 0-3-1.3431458-3-3v-46c0-1.65685425 1.34314575-3 3-3h36c1.6568542 0 3 1.34314575 3 3v35.5z" fill="#955ba5"/><path id="Shape" d="m7.83 12.87c-.82383326.4766981-1.54179571 1.1163992-2.11 1.88 0 .0055228-.00447715.01-.01.01-1.58973684 2.169188-2.10843177 4.9429184-1.41 7.54.08229306.2979582.30073665.5393959.589.651 3.95535542 1.3944942 8.2686446 1.3944942 12.224 0 .2874959-.1121209.5051225-.3534751.587-.651 1.043635-3.5782977-.3931846-7.4166005-3.53-9.43z" fill="#f18d46"/><g fill="#b49aca"><path id="Shape" d="m26 7h-4c-.5522847 0-1-.44771525-1-1s.4477153-1 1-1h4c.5522847 0 1 .44771525 1 1s-.4477153 1-1 1z"/><path id="Shape" d="m37 7h-7c-.5522847 0-1-.44771525-1-1s.4477153-1 1-1h7c.5522847 0 1 .44771525 1 1s-.4477153 1-1 1z"/><path id="Shape" d="m37 17h-4c-.5522847 0-1-.4477153-1-1s.4477153-1 1-1h4c.5522847 0 1 .4477153 1 1s-.4477153 1-1 1z"/><path id="Shape" d="m29 17h-7c-.5522847 0-1-.4477153-1-1s.4477153-1 1-1h7c.5522847 0 1 .4477153 1 1s-.4477153 1-1 1z"/><path id="Shape" d="m37 12h-15c-.5522847 0-1-.4477153-1-1s.4477153-1 1-1h15c.5522847 0 1 .4477153 1 1s-.4477153 1-1 1z"/><path id="Shape" d="m37 22h-15c-.5522847 0-1-.4477153-1-1s.4477153-1 1-1h15c.5522847 0 1 .4477153 1 1s-.4477153 1-1 1z"/></g><circle id="Oval" cx="28.5" cy="38.5" fill="#3b97d3" r="13.5"/><path id="Shape" d="m34.49 31.13c-4.34 1.67-11.45 5.46-13.75 12.85-2.731264-3.8768575-2.1851059-9.1741419 1.2797141-12.4121736 3.4648199-3.2380318 8.7869056-3.4248879 12.4702859-.4378264z" fill="#b0d3f0"/><path id="Shape" d="m38 38.5c-.0136925 4.1319293-2.6938954 7.7822272-6.6321173 9.0326012-3.9382219 1.2503741-8.2332126-.1853201-10.6278827-3.5526012 2.3-7.39 9.41-11.18 13.75-12.85 2.223234 1.8003187 3.5133751 4.5092473 3.51 7.37z" fill="#90bae1"/><path id="Shape" d="m39.36 46.53 8.05 8.06c.7787214.7787215.7787214 2.0412785-.0000001 2.8199999-.7787214.7787215-2.0412784.7787215-2.8199999.0000001l-8.06-8.05z" fill="#2980ba"/><path id="Shape" d="m13 29h-8c-.55228475 0-1 .4477153-1 1s.44771525 1 1 1h8c.5522847 0 1-.4477153 1-1s-.4477153-1-1-1z" fill="#b49aca"/><path id="Shape" d="m12 46h-7c-.55228475 0-1-.4477153-1-1s.44771525-1 1-1h7c.5522847 0 1 .4477153 1 1s-.4477153 1-1 1z" fill="#b49aca"/><path id="Shape" d="m11 36h-6c-.55228475 0-1-.4477153-1-1s.44771525-1 1-1h6c.5522847 0 1 .4477153 1 1s-.4477153 1-1 1z" fill="#b49aca"/><path id="Shape" d="m11 41h-6c-.55228475 0-1-.4477153-1-1s.44771525-1 1-1h6c.5522847 0 1 .4477153 1 1s-.4477153 1-1 1z" fill="#b49aca"/><circle id="Oval" cx="11" cy="9" fill="#fdd7ad" r="5"/></g></svg>