<?xml version="1.0" encoding="iso-8859-1"?>
<!-- Generator: Adobe Illustrator 19.0.0, SVG Export Plug-In . SVG Version: 6.00 Build 0)  -->
<svg version="1.1" id="Capa_1" xmlns="http://www.w3.org/2000/svg" xmlns:xlink="http://www.w3.org/1999/xlink" x="0px" y="0px"
	 viewBox="0 0 512.043 512.043" style="enable-background:new 0 0 512.043 512.043;" xml:space="preserve">
<g>
	<g transform="translate(1 1)">
		<g>
			<path style="fill:#607D8B;" d="M212.335,425.688h51.2v59.733c0,9.426-7.641,17.067-17.067,17.067h-17.067
				c-9.426,0-17.067-7.641-17.067-17.067V425.688z"/>
			<path style="fill:#607D8B;" d="M408.602,425.688h51.2v59.733c0,9.426-7.641,17.067-17.067,17.067h-17.067
				c-9.426,0-17.067-7.641-17.067-17.067V425.688z"/>
		</g>
		<path style="fill:#1566C0;" d="M502.469,41.688v349.867l-20.224,46.421c-1.125,2.807-3.804,4.683-6.827,4.779H196.719
			c-3.023-0.096-5.702-1.972-6.827-4.779l-20.224-46.421V41.688c-0.996-17.769,12.532-33.012,30.293-34.133h272.213
			C489.937,8.676,503.465,23.919,502.469,41.688z"/>
		<path style="fill:#2296F3;" d="M476.869,41.688v349.867l-20.224,46.421c-1.125,2.807-3.804,4.683-6.827,4.779H196.719
			c-3.023-0.096-5.702-1.972-6.827-4.779l-20.224-46.421V41.688c-0.996-17.769,12.532-33.012,30.293-34.133h246.613
			C464.337,8.676,477.865,23.919,476.869,41.688z"/>
		<path style="fill:#0377BC;" d="M502.469,391.555l-20.224,46.421c-1.125,2.807-3.804,4.683-6.827,4.779H196.719
			c-3.023-0.096-5.702-1.972-6.827-4.779l-20.224-46.421H502.469z"/>
		<path style="fill:#02A9F4;" d="M476.869,391.555l-20.224,46.421c-1.125,2.807-3.804,4.683-6.827,4.779H196.719
			c-3.023-0.096-5.702-1.972-6.827-4.779l-20.224-46.421H476.869z"/>
		<path style="fill:#3F51B5;" d="M220.869,41.688h230.4c9.426,0,17.067,7.641,17.067,17.067v8.533
			c0,9.426-7.641,17.067-17.067,17.067h-230.4c-9.426,0-17.067-7.641-17.067-17.067v-8.533
			C203.802,49.329,211.443,41.688,220.869,41.688z"/>
		<g>
			<circle style="fill:#FF5722;" cx="229.402" cy="331.821" r="25.6"/>
			<circle style="fill:#FF5722;" cx="442.735" cy="331.821" r="25.6"/>
		</g>
		<path style="fill:#00838F;" d="M220.869,118.488h230.4c9.426,0,17.067,7.641,17.067,17.067v119.467
			c0,9.426-7.641,17.067-17.067,17.067h-230.4c-9.426,0-17.067-7.641-17.067-17.067V135.555
			C203.802,126.129,211.443,118.488,220.869,118.488z"/>
		<path style="fill:#00BCD4;" d="M220.869,118.488h204.8c9.426,0,17.067,7.641,17.067,17.067v119.467
			c0,9.426-7.641,17.067-17.067,17.067h-204.8c-9.426,0-17.067-7.641-17.067-17.067V135.555
			C203.802,126.129,211.443,118.488,220.869,118.488z"/>
		<path style="fill:#3F51B5;" d="M306.202,348.888h59.733c9.426,0,17.067,7.641,17.067,17.067v25.6h-93.867v-25.6
			C289.135,356.529,296.776,348.888,306.202,348.888z"/>
		<circle style="fill:#FEC108;" cx="67.269" cy="101.421" r="59.733"/>
		<path style="fill:#607D8B;" d="M58.735,323.288h17.067c9.426,0,17.067,7.641,17.067,17.067v162.133h-51.2V340.355
			C41.669,330.929,49.31,323.288,58.735,323.288z"/>
	</g>
	<g>
		<path d="M473.21,0.021H200.923c-22.457,1.147-39.78,20.202-38.788,42.667v349.867c0,0.128,0.067,0.234,0.073,0.36
			c0.028,0.964,0.22,1.917,0.569,2.816l0.053,0.18l0.014,0.048l20.196,46.408c2.47,5.928,8.221,9.825,14.642,9.921h7.121v34.133
			c0.029,2.914,0.561,5.801,1.573,8.533H102.402v-153.6c-0.015-14.132-11.468-25.585-25.6-25.6V170.095
			c35.76-4.505,61.856-36.034,59.599-72.006s-32.09-63.992-68.133-63.992S2.393,62.117,0.136,98.089s23.839,67.501,59.599,72.006
			v145.659c-14.132,0.015-25.585,11.468-25.6,25.6v153.6h-25.6c-4.713,0-8.533,3.82-8.533,8.533s3.821,8.533,8.533,8.533h494.933
			c4.713,0,8.533-3.82,8.533-8.533s-3.821-8.533-8.533-8.533h-35.706c1.012-2.733,1.544-5.62,1.572-8.533v-34.133h7.117
			c6.418-0.098,12.167-3.99,14.642-9.912l20.2-46.417l0.014-0.045c0.026-0.061,0.031-0.128,0.056-0.19
			c0.35-0.902,0.543-1.857,0.569-2.824c0.005-0.121,0.07-0.223,0.07-0.345V42.688C512.995,20.222,495.669,1.166,473.21,0.021z
			 M17.069,102.421c0-28.277,22.923-51.2,51.2-51.2s51.2,22.923,51.2,51.2s-22.923,51.2-51.2,51.2
			C40.004,153.59,17.1,130.685,17.069,102.421z M179.202,42.688c-0.965-13.033,8.705-24.43,21.721-25.6H473.21
			c13.017,1.17,22.688,12.566,21.725,25.6v341.333h-102.4v-17.067c-0.015-14.132-11.468-25.585-25.6-25.6h-59.733
			c-14.132,0.015-25.585,11.468-25.6,25.6v17.067h-102.4V42.688z M375.469,384.021h-76.8v-17.067
			c0.006-4.71,3.823-8.527,8.533-8.533h59.733c4.71,0.006,8.527,3.823,8.533,8.533V384.021z M51.202,494.955v-153.6
			c0.006-4.71,3.823-8.527,8.533-8.533h17.067c4.71,0.006,8.527,3.823,8.533,8.533v153.6H51.202z M230.402,494.955
			c-4.71-0.006-8.527-3.823-8.533-8.533v-34.133h34.133v34.133c-0.006,4.71-3.823,8.527-8.533,8.533H230.402z M401.069,452.288
			v34.133c0.029,2.914,0.561,5.801,1.573,8.533H271.496c1.012-2.733,1.544-5.62,1.572-8.533v-34.133H401.069z M452.269,486.421
			c-0.005,4.711-3.822,8.529-8.533,8.533h-17.067c-4.711-0.005-8.529-3.822-8.533-8.533v-34.133h34.133V486.421z M475.594,435.221
			h-277.05l-14.854-34.133h306.763L475.594,435.221z"/>
		<path d="M221.869,93.888h230.4c14.132-0.015,25.585-11.468,25.6-25.6v-8.533c-0.015-14.132-11.468-25.585-25.6-25.6h-230.4
			c-14.132,0.015-25.585,11.468-25.6,25.6v8.533C196.284,82.42,207.737,93.873,221.869,93.888z M213.335,59.755
			c0.006-4.71,3.823-8.527,8.533-8.533h230.4c4.711,0.005,8.529,3.822,8.533,8.533v8.533c-0.005,4.711-3.822,8.529-8.533,8.533
			h-230.4c-4.71-0.006-8.527-3.823-8.533-8.533V59.755z"/>
		<path d="M230.402,366.955c18.851,0,34.133-15.282,34.133-34.133c0-18.851-15.282-34.133-34.133-34.133
			s-34.133,15.282-34.133,34.133C196.29,351.664,211.56,366.933,230.402,366.955z M230.402,315.755
			c9.426,0,17.067,7.641,17.067,17.067c0,9.426-7.641,17.067-17.067,17.067c-9.426,0-17.067-7.641-17.067-17.067
			C213.345,323.4,220.98,315.764,230.402,315.755z"/>
		<path d="M443.735,298.688c-18.851,0-34.133,15.282-34.133,34.133c0,18.851,15.282,34.133,34.133,34.133
			c18.851,0,34.133-15.282,34.133-34.133C477.849,313.978,462.578,298.708,443.735,298.688z M443.735,349.888
			c-9.426,0-17.067-7.641-17.067-17.067c0-9.426,7.641-17.067,17.067-17.067s17.067,7.641,17.067,17.067
			C460.791,342.242,453.157,349.877,443.735,349.888z"/>
		<path d="M221.869,281.621h230.4c14.132-0.015,25.585-11.468,25.6-25.6V136.555c-0.015-14.132-11.468-25.585-25.6-25.6h-230.4
			c-14.132,0.015-25.585,11.468-25.6,25.6v119.467C196.284,270.153,207.737,281.606,221.869,281.621z M213.335,136.555
			c0.006-4.71,3.823-8.527,8.533-8.533h230.4c4.711,0.005,8.529,3.822,8.533,8.533v119.467c-0.005,4.711-3.822,8.529-8.533,8.533
			h-230.4c-4.71-0.006-8.527-3.823-8.533-8.533V136.555z"/>
	</g>
</g>
<g>
</g>
<g>
</g>
<g>
</g>
<g>
</g>
<g>
</g>
<g>
</g>
<g>
</g>
<g>
</g>
<g>
</g>
<g>
</g>
<g>
</g>
<g>
</g>
<g>
</g>
<g>
</g>
<g>
</g>
</svg>
