<?xml version="1.0" encoding="iso-8859-1"?>
<!-- Generator: Adobe Illustrator 19.0.0, SVG Export Plug-In . SVG Version: 6.00 Build 0)  -->
<svg version="1.1" id="Layer_1" xmlns="http://www.w3.org/2000/svg" xmlns:xlink="http://www.w3.org/1999/xlink" x="0px" y="0px"
	 viewBox="0 0 451.694 451.694" style="enable-background:new 0 0 451.694 451.694;" xml:space="preserve">
<g id="XMLID_970_">
	<path id="XMLID_1959_" style="fill:#E0E0E2;" d="M451.694,168.35c0-24.538-19.963-44.5-44.5-44.5H44.5
		c-24.538,0-44.5,19.962-44.5,44.5v216.018c0,24.538,19.962,44.5,44.5,44.5h362.694c24.537,0,44.5-19.962,44.5-44.5V168.35z
		 M260.988,185.753h-70.282c-8.284,0-15-6.716-15-15s6.716-15,15-15h70.282c8.284,0,15,6.716,15,15S269.272,185.753,260.988,185.753
		z"/>
	<path id="XMLID_1958_" style="fill:#D8D7DA;" d="M407.194,123.85H225.18v31.902h35.808c8.284,0,15,6.716,15,15s-6.716,15-15,15
		H225.18v243.115h182.014c24.537,0,44.5-19.962,44.5-44.5V168.35C451.694,143.813,431.731,123.85,407.194,123.85z"/>
	<path id="XMLID_1957_" style="fill:#FFFFFF;" d="M187.847,380.67c0,4.204-3.408,7.612-7.612,7.612H39.792
		c-4.204,0-7.612-3.408-7.612-7.612V203.159c0-6.627,5.373-12,12-12h136.055c4.204,0,7.612,3.408,7.612,7.612L187.847,380.67
		L187.847,380.67z"/>
	<path id="XMLID_1954_" style="fill:#CD2A00;" d="M248.847,22.826h-46.001c-8.284,0-15,6.716-15,15v119.927c0,8.284,6.716,15,15,15
		h46.001c8.284,0,15-6.716,15-15V37.826C263.847,29.542,257.131,22.826,248.847,22.826z"/>
	<path id="XMLID_1953_" style="fill:#3E3D42;" d="M168.688,372.101c2.581,0,5.009-1.225,6.542-3.301s1.99-4.757,1.231-7.224
		l-2.616-8.501c-5.959-19.364-21.214-34.461-40.641-40.217c-2.095-0.621-3.532-2.546-3.532-4.731v-13.078
		c5.924-3.802,10.636-9.386,13.343-16.087c4.772-0.469,9.287-5.306,10.692-11.945c1.399-6.579-0.725-12.781-4.831-15.19l1.154-6.035
		c2.104-11.002-0.81-22.369-7.949-31.002c-7.138-8.633-17.756-13.63-28.957-13.63h-4.109c-11.202,0-21.819,4.998-28.957,13.63
		c-7.138,8.633-10.052,20-7.949,31.002l1.155,6.036c-4.107,2.41-6.227,8.611-4.833,15.189c1.408,6.638,5.923,11.475,10.694,11.944
		c2.509,6.21,6.739,11.46,12.061,15.221v13.984c0,2.166-1.413,4.078-3.483,4.715l-0.008,0.002
		c-18.679,5.748-33.301,20.37-39.049,39.05l-2.967,9.642c-0.759,2.467-0.302,5.147,1.231,7.223c1.533,2.076,3.961,3.301,6.542,3.301
		h115.236V372.101z"/>
	<g id="XMLID_1868_">
		<path id="XMLID_502_" style="fill:#3E3D42;" d="M352.897,276.999h-81.602c-7.295,0-13.209-5.914-13.209-13.209
			s5.914-13.209,13.209-13.209h81.602c7.295,0,13.209,5.914,13.209,13.209C366.106,271.085,360.192,276.999,352.897,276.999z"/>
	</g>
	<g id="XMLID_944_">
		<path id="XMLID_503_" style="fill:#3E3D42;" d="M400.449,332.736H271.295c-7.295,0-13.209-5.914-13.209-13.209
			s5.914-13.209,13.209-13.209h129.154c7.295,0,13.209,5.914,13.209,13.209C413.658,326.822,407.744,332.736,400.449,332.736z"/>
	</g>
	<path id="XMLID_1948_" style="fill:#2D2D30;" d="M168.688,372.101c2.581,0,5.009-1.225,6.542-3.301s1.99-4.757,1.231-7.224
		l-2.616-8.501c-5.959-19.364-21.214-34.461-40.641-40.217c-2.095-0.621-3.532-2.546-3.532-4.731v-13.078
		c5.924-3.802,10.636-9.386,13.343-16.087c4.772-0.469,9.287-5.306,10.692-11.945c1.399-6.579-0.725-12.781-4.831-15.19l1.154-6.035
		c2.104-11.002-0.81-22.369-7.949-31.002c-7.138-8.633-17.756-13.63-28.957-13.63h-2.055v170.941L168.688,372.101L168.688,372.101z"
		/>
	<path id="XMLID_1947_" style="fill:#AB2300;" d="M248.847,22.826h-23v149.927h23c8.284,0,15-6.716,15-15V37.826
		C263.847,29.542,257.131,22.826,248.847,22.826z"/>
</g>
<g>
</g>
<g>
</g>
<g>
</g>
<g>
</g>
<g>
</g>
<g>
</g>
<g>
</g>
<g>
</g>
<g>
</g>
<g>
</g>
<g>
</g>
<g>
</g>
<g>
</g>
<g>
</g>
<g>
</g>
</svg>
