<?xml version="1.0" encoding="iso-8859-1"?>
<!-- Generator: Adobe Illustrator 19.0.0, SVG Export Plug-In . SVG Version: 6.00 Build 0)  -->
<svg version="1.1" id="Capa_1" xmlns="http://www.w3.org/2000/svg" xmlns:xlink="http://www.w3.org/1999/xlink" x="0px" y="0px"
	 viewBox="0 0 511.968 511.968" style="enable-background:new 0 0 511.968 511.968;" xml:space="preserve">
<polygon style="fill:#E6E9ED;" points="267.983,383.406 255.984,378.476 243.985,383.406 243.985,507.984 267.983,507.984 "/>
<g>
	<path style="fill:#5D9CEC;" d="M499.969,507.984H267.983V383.406l-7.999-3.43l55.997,24.015l39.122-54.794l16.873,12.077
		c24.32,13.437,60.958,27.592,79.996,34.717c31.998,11.921,47.997,23.999,47.997,55.996
		C499.969,483.986,499.969,507.984,499.969,507.984z"/>
	<path style="fill:#5D9CEC;" d="M243.985,383.406v124.578H11.999c0,0,0-23.998,0-55.997c0-31.997,15.999-44.075,47.997-55.996
		c18.959-7.125,55.676-21.28,79.995-34.717l16.877-12.077l39.119,54.794l55.997-24.015L243.985,383.406z"/>
</g>
<g style="opacity:0.4;">
	<path style="fill:#FFFFFF;" d="M27.998,459.987c0-31.998,16-44.076,47.997-55.996c18.96-7.125,55.676-21.28,79.995-34.717
		l10.07-7.203l-9.191-12.874l-16.877,12.077c-24.319,13.437-61.036,27.592-79.995,34.717C27.998,407.912,12,419.99,12,451.987
		c0,31.999,0,55.997,0,55.997h15.999C27.998,498.376,27.998,480.923,27.998,459.987z"/>
</g>
<g>
	<polygon style="fill:#E6E9ED;" points="341.431,319.058 255.984,363.977 170.532,319.058 155.99,347.978 195.988,403.975 
		255.984,378.476 315.981,403.975 355.977,347.978 	"/>
	<polygon style="fill:#E6E9ED;" points="341.431,319.058 255.984,363.977 170.532,319.058 155.99,347.978 195.988,403.975 
		255.984,378.476 315.981,403.975 355.977,347.978 	"/>
</g>
<g style="opacity:0.2;">
	<polygon points="158.358,351.275 155.99,355.977 195.988,411.974 243.985,391.577 243.985,383.406 195.988,403.991 	"/>
	<polygon points="243.985,383.406 243.985,383.406 251.984,379.976 	"/>
</g>
<g style="opacity:0.2;">
	<polygon points="259.984,379.976 267.983,383.406 267.983,383.406 	"/>
	<polygon points="315.981,411.974 355.977,355.977 353.611,351.275 315.981,403.991 267.983,383.406 267.983,391.577 	"/>
</g>
<g style="opacity:0.2;">
	<polygon points="243.985,383.406 243.985,391.577 255.984,386.476 267.983,391.577 267.983,383.406 255.984,378.476 	"/>
</g>
<g style="opacity:0.2;">
	<path d="M167.896,324.307c27.999,29.382,62.031,47.685,88.088,47.685c26.061,0,60.09-18.303,88.088-47.685l-2.641-5.249
		l-85.447,44.919l-85.452-44.919L167.896,324.307z"/>
</g>
<path style="fill:#FFFFFF;" d="M178.633,334.776c-3.656-3.313-7.242-6.805-10.738-10.469l-11.906,23.671l39.998,55.997l12.272-5.219
	l-36.271-50.778L178.633,334.776z"/>
<g style="opacity:0.2;">
	<path d="M344.072,324.307c-3.5,3.664-7.077,7.156-10.733,10.469l6.641,13.202l-36.271,50.778l12.273,5.219l39.996-55.997
		L344.072,324.307z"/>
</g>
<path style="fill:#965353;" d="M329.823,65.05c0,0,85.917-11.917,66.152,114.954l-35.123-57.438c0,0-55.668,22.96-105.989,22.96
	c-50.396,0-105.431-22.96-105.431-22.96l-33.439,57.438C96.072-32.381,344.134,6.175,352.853,7.616
	C315.261,23.053,329.823,65.05,329.823,65.05z"/>
<g style="opacity:0.3;">
	<path d="M329.823,65.05c0,0,59.567-10.479,52.653,92.881l13.499,22.073C415.74,53.133,329.823,65.05,329.823,65.05z"/>
</g>
<g style="opacity:0.3;">
	<path style="fill:#FFFFFF;" d="M310.261,4.105c-72.28-1.668-209.271,15.933-194.269,175.899l15.042-25.838
		C132.46,28.292,240.18,5.515,310.261,4.105z"/>
</g>
<path style="fill:#EAC6BB;" d="M395.975,180.005v15.999c0,91.596-86.714,167.989-139.991,167.989
	c-53.278,0-139.991-76.394-139.991-167.989v-15.999l33.439-57.438c0,0,55.036,22.96,105.431,22.96
	c50.321,0,105.989-22.96,105.989-22.96L395.975,180.005z"/>
<g style="opacity:0.5;">
	<path style="fill:#FFFFFF;" d="M131.991,196.004v-15.999l30.581-52.524c-8.184-2.858-13.14-4.914-13.14-4.914l-33.439,57.438
		v15.999c0,91.596,86.713,167.989,139.991,167.989c2.586,0,5.27-0.234,7.999-0.586C210.471,356.494,131.991,283.154,131.991,196.004
		z"/>
</g>
<g style="opacity:0.2;">
	<path d="M379.976,196.004v-15.999L349.4,127.481c8.179-2.858,13.14-4.914,13.14-4.914l33.436,57.438v15.999
		c0,91.596-86.714,167.989-139.991,167.989c-2.586,0-5.269-0.234-8-0.586C301.497,356.494,379.976,283.154,379.976,196.004z"/>
</g>
<g style="opacity:0.3;">
	<rect x="331.984" y="475.974" style="fill:#FFFFFF;" width="79.995" height="32.01"/>
</g>
<polygon style="fill:#CCD1D9;" points="379.976,443.972 355.977,467.97 355.977,475.97 403.975,475.97 403.975,467.97 "/>
<polygon style="fill:#E6E9ED;" points="363.977,443.972 339.979,467.97 339.979,475.97 387.976,475.97 387.976,467.97 "/>
<g style="opacity:0.2;">
	<polygon points="363.969,451.971 379.976,467.97 387.976,467.97 367.992,447.987 	"/>
</g>
<polygon style="fill:#FFFFFF;" points="367.977,447.972 363.977,443.972 339.979,467.97 347.978,467.97 "/>
<g style="opacity:0.3;">
	<rect x="331.984" y="475.974" style="fill:#FFFFFF;" width="8" height="32.01"/>
</g>
<g style="opacity:0.3;">
	<rect x="403.974" y="475.974" width="7.999" height="32.01"/>
</g>
<polygon style="fill:#FFFFFF;" points="251.984,388.178 243.985,391.577 243.985,507.968 251.984,507.968 "/>
<g style="opacity:0.2;">
	<polygon points="259.984,388.178 267.983,391.577 267.983,507.968 259.984,507.968 	"/>
</g>
<g style="opacity:0.2;">
	<rect x="339.984" y="467.974" width="63.996" height="8"/>
</g>
<g style="opacity:0.3;">
	<path d="M483.97,459.987c0-31.998-15.999-44.076-47.998-55.996c-18.959-7.125-55.676-21.28-79.995-34.717l-10.069-7.203
		l9.195-12.874l16.873,12.077c24.32,13.437,61.035,27.592,79.996,34.717c31.998,11.921,47.997,23.999,47.997,55.996
		c0,31.999,0,55.997,0,55.997H483.97C483.97,498.376,483.97,480.923,483.97,459.987z"/>
</g>
<g>
	<path style="fill:#3A3847;" d="M499.969,511.968H11.999c-2.211,0-4-1.789-4-4v-55.997c0-34.334,17.784-47.48,50.598-59.745
		c34.549-12.905,62.024-24.836,79.453-34.499c1.945-1.086,4.367-0.382,5.438,1.548c1.074,1.937,0.375,4.374-1.555,5.436
		c-17.772,9.867-45.622,21.969-80.538,35.015c-30.756,11.483-45.396,22.232-45.396,52.246v51.997H495.97v-51.997
		c0-30.014-14.64-40.763-45.396-52.246c-35.514-13.296-62.613-25.069-80.542-35.006c-1.931-1.07-2.633-3.508-1.563-5.438
		c1.07-1.937,3.507-2.632,5.438-1.562c17.585,9.749,44.325,21.365,79.471,34.506c32.811,12.265,50.591,25.411,50.591,59.745v55.997
		C503.968,510.179,502.18,511.968,499.969,511.968z"/>
	<path style="fill:#3A3847;" d="M255.984,367.977c-55.547,0-143.991-78.714-143.991-171.989c0-2.211,1.789-4,4-4c2.21,0,4,1.789,4,4
		c0,88.939,83.53,163.989,135.992,163.989c52.466,0,135.992-75.05,135.992-163.989c0-2.211,1.788-4,3.999-4c2.212,0,4,1.789,4,4
		C399.975,289.263,311.527,367.977,255.984,367.977z"/>
	<path style="fill:#3A3847;" d="M256.222,399.975c-2.207,0-4.039-1.789-4.039-4s1.75-3.999,3.961-3.999h0.078
		c2.211,0,3.999,1.788,3.999,3.999S258.433,399.975,256.222,399.975z"/>
	<path style="fill:#3A3847;" d="M256.222,431.973c-2.207,0-4.039-1.789-4.039-4s1.75-4,3.961-4h0.078c2.211,0,3.999,1.789,3.999,4
		S258.433,431.973,256.222,431.973z"/>
	<path style="fill:#3A3847;" d="M256.222,463.97c-2.207,0-4.039-1.789-4.039-4c0-2.21,1.75-3.999,3.961-3.999h0.078
		c2.211,0,3.999,1.789,3.999,3.999C260.221,462.181,258.433,463.97,256.222,463.97z"/>
	<path style="fill:#3A3847;" d="M256.222,495.969c-2.207,0-4.039-1.789-4.039-4s1.75-4,3.961-4h0.078c2.211,0,3.999,1.789,3.999,4
		S258.433,495.969,256.222,495.969z"/>
	<path style="fill:#3A3847;" d="M355.977,351.978c-1.468,0-2.874-0.813-3.577-2.211l-7.999-15.999
		c-0.984-1.977-0.188-4.383,1.788-5.367c1.977-0.976,4.383-0.188,5.367,1.789l8,15.999c0.983,1.977,0.187,4.383-1.789,5.367
		C357.197,351.837,356.587,351.978,355.977,351.978z"/>
	<path style="fill:#3A3847;" d="M315.981,407.974c-0.813,0-1.626-0.242-2.329-0.75c-1.796-1.281-2.21-3.781-0.921-5.578
		l39.997-55.995c1.281-1.781,3.78-2.204,5.578-0.923c1.796,1.282,2.211,3.781,0.921,5.578l-39.997,55.996
		C318.449,407.396,317.23,407.974,315.981,407.974z"/>
	<path style="fill:#3A3847;" d="M315.981,407.974c-0.532,0-1.063-0.102-1.579-0.328l-55.992-23.998
		c-2.031-0.867-2.973-3.219-2.102-5.25c0.871-2.031,3.227-2.968,5.249-2.094l56.001,23.999c2.031,0.867,2.969,3.218,2.094,5.249
		C319.011,407.068,317.527,407.974,315.981,407.974z"/>
	<path style="fill:#3A3847;" d="M155.986,351.978c-0.602,0-1.211-0.142-1.785-0.422c-1.976-0.984-2.777-3.391-1.789-5.367l8-15.999
		c0.992-1.977,3.387-2.765,5.367-1.789c1.977,0.984,2.777,3.391,1.789,5.367l-8,15.999
		C158.865,351.166,157.455,351.978,155.986,351.978z"/>
	<path style="fill:#3A3847;" d="M195.991,407.974c-1.25,0-2.476-0.578-3.257-1.672l-39.998-55.996
		c-1.285-1.797-0.867-4.296,0.93-5.578c1.801-1.288,4.292-0.875,5.578,0.923l39.998,55.995c1.285,1.797,0.867,4.297-0.93,5.578
		C197.609,407.732,196.796,407.974,195.991,407.974z"/>
	<path style="fill:#3A3847;" d="M195.988,407.974c-1.551,0-3.028-0.906-3.676-2.422c-0.871-2.031,0.07-4.382,2.102-5.249
		l55.997-23.999c2.007-0.891,4.378,0.063,5.25,2.094c0.871,2.031-0.07,4.383-2.102,5.25l-55.997,23.998
		C197.05,407.873,196.515,407.974,195.988,407.974z"/>
	<path style="fill:#3A3847;" d="M115.993,183.989c-0.285,0-0.574-0.032-0.863-0.094c-1.695-0.375-2.957-1.801-3.121-3.535
		c-5.019-53.595,6.464-96.17,34.131-126.547C186.645,9.336,253.078,0,301.684,0c28.389,0,49.474,3.277,51.786,3.652
		c1.766,0.285,3.132,1.711,3.336,3.492c0.202,1.777-0.797,3.477-2.453,4.155c-28.607,11.773-23.967,40.248-21.576,49.528
		c0.804-0.035,1.733-0.063,2.78-0.063c11.366,0,32.803,2.77,48.677,21.312c17.428,20.358,22.709,53.509,15.694,98.529
		c-0.258,1.655-1.523,2.976-3.171,3.305c-1.657,0.351-3.313-0.41-4.195-1.836l-33.381-54.583
		c-12.656,4.902-60.044,22.022-104.338,22.022c-44.161,0-90.967-17.026-103.658-21.983L119.449,182
		C118.723,183.251,117.395,183.989,115.993,183.989z M360.829,118.532c1.352,0,2.664,0.691,3.414,1.914l29.279,47.868
		c4.227-36.943-0.93-64.173-15.358-81.034c-13.796-16.108-32.615-18.515-42.606-18.515c-3.101,0-5.03,0.246-5.155,0.266
		c-1.875,0.238-3.704-0.855-4.328-2.652c-0.142-0.406-12.343-36.76,14.218-56.359C331.224,9.054,317.653,8,301.686,8
		c-46.993,0-111.095,8.882-149.632,51.199c-23.861,26.197-34.927,62.333-32.966,107.533l26.924-46.212
		c1.015-1.738,3.145-2.449,5-1.68c0.542,0.226,54.883,22.674,103.833,22.674c48.966,0,103.908-22.452,104.463-22.678
		C359.797,118.63,360.322,118.532,360.829,118.532z"/>
	<path style="fill:#3A3847;" d="M267.983,511.968c-2.211,0-4-1.789-4-4V395.975c0-2.211,1.789-3.999,4-3.999s4,1.788,4,3.999
		v111.993C271.983,510.179,270.194,511.968,267.983,511.968z"/>
	<path style="fill:#3A3847;" d="M243.985,511.968c-2.211,0-4-1.789-4-4V395.975c0-2.211,1.789-3.999,4-3.999c2.21,0,4,1.788,4,3.999
		v111.993C247.984,510.179,246.195,511.968,243.985,511.968z"/>
	<path style="fill:#3A3847;" d="M411.974,479.97h-79.995c-2.211,0-4-1.789-4-4s1.789-4,4-4h79.995c2.211,0,4,1.789,4,4
		S414.185,479.97,411.974,479.97z"/>
	<path style="fill:#3A3847;" d="M331.979,495.969c-2.211,0-4-1.789-4-4V475.97c0-2.211,1.789-4,4-4s4,1.789,4,4v15.999
		C335.979,494.18,334.19,495.969,331.979,495.969z"/>
	<path style="fill:#3A3847;" d="M411.974,495.969c-2.211,0-4-1.789-4-4V475.97c0-2.211,1.789-4,4-4s4,1.789,4,4v15.999
		C415.974,494.18,414.185,495.969,411.974,495.969z"/>
	<path style="fill:#3A3847;" d="M339.979,471.97c-1.023,0-2.048-0.39-2.828-1.172c-1.563-1.563-1.563-4.093,0-5.656l23.998-23.998
		c1.563-1.563,4.094-1.563,5.656,0s1.563,4.094,0,5.656l-23.999,23.998C342.026,471.581,341.002,471.97,339.979,471.97z"/>
	<path style="fill:#3A3847;" d="M387.976,471.97c-1.024,0-2.047-0.39-2.829-1.172L361.149,446.8c-1.563-1.563-1.563-4.094,0-5.656
		s4.094-1.563,5.656,0l23.999,23.998c1.563,1.563,1.563,4.094,0,5.656C390.022,471.581,388.999,471.97,387.976,471.97z"/>
	<path style="fill:#3A3847;" d="M403.975,471.97c-1.023,0-2.047-0.39-2.828-1.172L377.148,446.8c-1.562-1.563-1.562-4.094,0-5.656
		c1.563-1.563,4.094-1.563,5.656,0l23.998,23.998c1.563,1.563,1.563,4.094,0,5.656C406.022,471.581,404.999,471.97,403.975,471.97z"
		/>
</g>
<g>
</g>
<g>
</g>
<g>
</g>
<g>
</g>
<g>
</g>
<g>
</g>
<g>
</g>
<g>
</g>
<g>
</g>
<g>
</g>
<g>
</g>
<g>
</g>
<g>
</g>
<g>
</g>
<g>
</g>
</svg>
