<svg height="511pt" viewBox="0 -33 511.998 511" width="511pt" xmlns="http://www.w3.org/2000/svg"><path d="m241.390625 437.644531h-37.636719c-5.726562 0-10.367187-4.644531-10.367187-10.367187v-29.796875h58.371093v29.796875c0 5.722656-4.640624 10.367187-10.367187 10.367187zm0 0" fill="#babac0"/><path d="m415.5625 437.644531h-37.636719c-5.726562 0-10.367187-4.644531-10.367187-10.367187v-29.796875h58.371094v29.796875c0 5.722656-4.640626 10.367187-10.367188 10.367187zm0 0" fill="#babac0"/><path d="m251.757812 397.480469v29.792969c0 5.730468-4.640624 10.371093-10.371093 10.371093h-16.976563c5.722656 0 10.363282-4.640625 10.363282-10.371093v-29.792969zm0 0" fill="#a1a1a7"/><path d="m425.925781 397.480469v29.792969c0 5.730468-4.640625 10.371093-10.359375 10.371093h-16.988281c5.722656 0 10.371094-4.640625 10.371094-10.371093v-29.792969zm0 0" fill="#a1a1a7"/><path d="m440.3125 92.171875c-1.207031-13.183594-12.261719-23.265625-25.5-23.265625h-210.308594c-13.238281 0-24.292968 10.085938-25.5 23.265625-4.949218 54.128906-16.121094 190.246094-11.773437 273.554687v5.207032c0 14.140625 11.460937 25.605468 25.605469 25.605468h233.648437c14.140625 0 25.601563-11.464843 25.601563-25.605468v-5.207032c4.347656-83.308593-6.824219-219.421874-11.773438-273.554687zm0 0" fill="#0573cf"/><path d="m452.089844 365.726562v5.210938c0 14.136719-11.464844 25.601562-25.613282 25.601562h-22.023437c14.136719 0 25.601563-11.464843 25.601563-25.601562v-5.210938c4.347656-83.3125-6.824219-219.421874-11.773438-273.554687-1.203125-13.175781-12.253906-23.269531-25.492188-23.269531h22.023438c13.238281 0 24.292969 10.09375 25.492188 23.269531 4.953124 54.132813 16.132812 190.242187 11.785156 273.554687zm0 0" fill="#005aaf"/><path d="m166.273438 311.175781c.394531-56.238281 4.539062-118.210937 8.363281-167.328125h270.050781c3.746094 48.152344 7.804688 111.855469 8.332031 167.328125zm0 0" fill="#c9f0ff"/><path d="m453.023438 311.175781h-22.046876c-.519531-55.464843-4.578124-119.167969-8.328124-167.328125h22.039062c.640625 0 1.121094 14.902344 1.222656 16.203125.039063.640625.089844 1.273438.140625 1.914063 1.359375 17.394531 2.351563 34.765625 3.40625 52.019531.496094 8.164063.898438 16.304687 1.300781 24.5.9375 18.988281 1.597657 38.15625 2.023438 57.117187.0625 2.664063.113281 5.320313.140625 7.957032.050781 2.554687.082031 5.089844.101563 7.617187zm0 0" fill="#9ae7fd"/><path d="m383.609375 91.503906h-147.902344c-3.875 0-7.015625-3.140625-7.015625-7.015625v-34.507812c0-3.875 3.140625-7.015625 7.015625-7.015625h147.902344c3.875 0 7.015625 3.140625 7.015625 7.015625v34.507812c0 3.875-3.140625 7.015625-7.015625 7.015625zm0 0" fill="#ffcd6b"/><path d="m390.621094 49.976562v34.507813c0 3.878906-3.132813 7.015625-7.011719 7.015625h-23.070313c3.878907 0 7.015626-3.136719 7.015626-7.015625v-34.507813c0-3.871093-3.136719-7.015624-7.015626-7.015624h23.070313c3.878906 0 7.011719 3.144531 7.011719 7.015624zm0 0" fill="#ffc143"/><path d="m358.234375 369.242188h-97.15625c-4.175781 0-7.5625-3.386719-7.5625-7.5625v-14.703126c0-4.175781 3.386719-7.5625 7.5625-7.5625h97.160156c4.175781 0 7.5625 3.386719 7.5625 7.5625v14.703126c0 4.175781-3.386719 7.5625-7.566406 7.5625zm0 0" fill="#ececf1"/><path d="m365.800781 346.976562v14.699219c0 4.179688-3.386719 7.566407-7.5625 7.566407h-15.433593c4.179687 0 7.566406-3.386719 7.566406-7.566407v-14.699219c0-4.179687-3.386719-7.566406-7.566406-7.566406h15.433593c4.175781 0 7.5625 3.390625 7.5625 7.566406zm0 0" fill="#d3d3d8"/><path d="m228.492188 354.328125c0 9.847656-7.980469 17.828125-17.828126 17.828125-9.84375 0-17.824218-7.980469-17.824218-17.828125 0-9.84375 7.980468-17.824219 17.824218-17.824219 9.847657 0 17.828126 7.980469 17.828126 17.824219zm0 0" fill="#ffcd6b"/><path d="m426.476562 354.328125c0 9.847656-7.980468 17.828125-17.828124 17.828125-9.84375 0-17.824219-7.980469-17.824219-17.828125 0-9.84375 7.980469-17.824219 17.824219-17.824219 9.847656 0 17.828124 7.980469 17.828124 17.824219zm0 0" fill="#ffcd6b"/><path d="m228.488281 354.332031c0 9.839844-7.976562 17.828125-17.828125 17.828125-5.328125 0-10.121094-2.34375-13.394531-6.0625.449219.03125.910156.050782 1.371094.050782 9.851562 0 17.828125-7.988282 17.828125-17.828126 0-4.519531-1.675782-8.628906-4.429688-11.765624 9.207032.703124 16.453125 8.386718 16.453125 17.777343zm0 0" fill="#ffc143"/><path d="m426.476562 354.332031c0 9.839844-7.984374 17.828125-17.828124 17.828125-5.339844 0-10.128907-2.34375-13.394532-6.0625.449219.03125.910156.050782 1.371094.050782 9.839844 0 17.828125-7.988282 17.828125-17.828126 0-4.519531-1.675781-8.628906-4.429687-11.765624 9.199218.703124 16.453124 8.386718 16.453124 17.777343zm0 0" fill="#ffc143"/><path d="m139.207031 267.03125h-19.386719c-2.765624 0-5.011718-2.242188-5.011718-5.007812v-49.277344c0-7.914063 6.417968-14.332032 14.332031-14.332032h15.078125v63.609376c-.003906 2.765624-2.246094 5.007812-5.011719 5.007812zm0 0" fill="#babac0"/><path d="m139.207031 267.03125h-19.386719c-2.765624 0-5.011718-2.242188-5.011718-5.007812v-49.277344c0-7.914063 6.417968-14.332032 14.332031-14.332032h15.078125v63.609376c-.003906 2.765624-2.246094 5.007812-5.011719 5.007812zm0 0" fill="#babac0"/><path d="m144.214844 198.410156v63.613282c0 2.765624-2.242188 5.007812-5.007813 5.007812h-14.699219c2.765626 0 5.007813-2.246094 5.007813-5.007812v-63.613282zm0 0" fill="#a1a1a7"/><path d="m480.089844 267.03125h19.382812c2.769532 0 5.011719-2.242188 5.011719-5.007812v-49.277344c0-7.914063-6.417969-14.332032-14.332031-14.332032h-15.074219v63.609376c0 2.765624 2.242187 5.007812 5.011719 5.007812zm0 0" fill="#babac0"/><path d="m504.488281 212.742188v49.28125c0 2.765624-2.242187 5.007812-5.011719 5.007812h-9.699218v-54.289062c0-7.90625-6.414063-14.332032-14.328125-14.332032h14.707031c7.917969 0 14.332031 6.417969 14.332031 14.332032zm0 0" fill="#a1a1a7"/><path d="m59.179688 125.597656h30.675781v276.1875h-30.675781zm0 0" fill="#ececf1"/><path d="m74.519531 125.597656h15.335938v276.1875h-15.335938zm0 0" fill="#d3d3d8"/><path d="m102.339844 438.164062h-55.644532c-3.3125 0-6-2.683593-6-6v-24.378906c0-3.316406 2.6875-6 6-6h55.644532c3.3125 0 6 2.683594 6 6v24.378906c0 3.3125-2.6875 6-6 6zm0 0" fill="#babac0"/><path d="m108.339844 407.78125v24.378906c0 3.320313-2.691406 6-6 6h-17.808594c3.320312 0 6-2.679687 6-6v-24.378906c0-3.3125-2.679688-6-6-6h17.808594c3.308594 0 6 2.6875 6 6zm0 0" fill="#a1a1a7"/><path d="m141.535156 75.019531c0 37.011719-30.003906 67.015625-67.015625 67.015625s-67.019531-30.003906-67.019531-67.015625c0-37.015625 30.007812-67.019531 67.019531-67.019531s67.015625 30.003906 67.015625 67.019531zm0 0" fill="#ffcd6b"/><path d="m141.539062 75.019531c0 37.011719-30.007812 67.019531-67.019531 67.019531-2.941406 0-5.828125-.1875-8.667969-.558593 32.910157-4.25 58.347657-32.390625 58.347657-66.460938 0-34.070312-25.4375-62.210937-58.347657-66.460937 2.839844-.367188 5.726563-.558594 8.667969-.558594 37.011719 0 67.019531 30.011719 67.019531 67.019531zm0 0" fill="#ffc143"/><path d="m89.855469 327.277344c4.144531 0 7.5-3.355469 7.5-7.5v-173.835938c29.949219-9.664062 51.679687-37.796875 51.679687-70.921875 0-41.089843-33.425781-74.519531-74.515625-74.519531-41.089843 0-74.519531 33.429688-74.519531 74.519531 0 33.125 21.730469 61.253907 51.679688 70.921875v248.34375h-4.980469c-7.445313 0-13.5 6.054688-13.5 13.5v24.378906c0 7.445313 6.054687 13.5 13.5 13.5h55.640625c7.445312 0 13.5-6.054687 13.5-13.5v-24.378906c0-7.445312-6.054688-13.5-13.5-13.5h-4.980469v-39.769531c0-4.144531-3.359375-7.5-7.5-7.5-4.144531 0-7.5 3.355469-7.5 7.5v39.769531h-15.679687v-245.164062c2.578124.273437 5.191406.414062 7.839843.414062 2.644531 0 5.261719-.140625 7.835938-.414062v170.65625c0 4.140625 3.359375 7.5 7.5 7.5zm0 82.007812h10.984375v21.378906h-52.644532v-21.378906zm-15.335938-274.75c-32.820312 0-59.519531-26.699218-59.519531-59.515625 0-32.820312 26.699219-59.519531 59.519531-59.519531 32.820313 0 59.519531 26.699219 59.519531 59.519531 0 32.816407-26.703124 59.515625-59.519531 59.515625zm0 0"/><path d="m358.234375 331.898438h-97.15625c-8.3125 0-15.078125 6.765624-15.078125 15.082031v14.699219c0 8.316406 6.765625 15.082031 15.078125 15.082031h97.15625c8.316406 0 15.082031-6.765625 15.082031-15.082031v-14.699219c0-8.316407-6.765625-15.082031-15.082031-15.082031zm.019531 29.828124s-.007812.003907-.019531.003907l-97.207031-.050781.050781-14.75 97.207031.050781zm0 0"/><path d="m210.664062 328.984375c-13.972656 0-25.339843 11.371094-25.339843 25.34375 0 13.976563 11.367187 25.34375 25.339843 25.34375 13.976563 0 25.34375-11.367187 25.34375-25.34375 0-13.972656-11.367187-25.34375-25.34375-25.34375zm0 35.65625c-5.683593 0-10.308593-4.625-10.308593-10.3125s4.625-10.3125 10.308593-10.3125c5.6875 0 10.3125 4.628906 10.3125 10.3125 0 5.6875-4.625 10.3125-10.3125 10.3125zm0 0"/><path d="m408.648438 328.984375c-13.972657 0-25.339844 11.371094-25.339844 25.34375 0 13.976563 11.367187 25.34375 25.339844 25.34375 13.972656 0 25.34375-11.367187 25.34375-25.34375 0-13.972656-11.367188-25.34375-25.34375-25.34375zm0 35.65625c-5.683594 0-10.3125-4.625-10.3125-10.3125s4.628906-10.3125 10.3125-10.3125c5.6875 0 10.3125 4.628906 10.3125 10.3125 0 5.6875-4.625 10.3125-10.3125 10.3125zm0 0"/><path d="m490.15625 190.898438h-8.042969c-2.214843-10.945313-11.910156-19.210938-23.5-19.210938h-4.316406c-.65625-9.457031-1.355469-18.925781-2.117187-28.421875-.003907-.046875-.015626-.089844-.019532-.136719-1.609375-20.671875-3.164062-38.511718-4.367187-51.640625-1.566407-17.15625-15.746094-30.09375-32.980469-30.09375h-16.671875v-11.417969c0-8.007812-6.519531-14.527343-14.53125-14.527343h-87.636719c-4.152344 0-7.515625 3.363281-7.515625 7.515625 0 4.148437 3.367188 7.515625 7.515625 7.515625h87.136719v33.507812h-146.902344v-33.507812h25.027344c4.152344 0 7.515625-3.367188 7.515625-7.515625 0-4.152344-3.363281-7.515625-7.515625-7.515625h-25.527344c-8.011719 0-14.53125 6.515625-14.53125 14.527343v11.414063h-16.671875c-17.238281 0-31.414062 12.9375-32.984375 30.097656-1.199219 13.148438-2.757812 31.023438-4.371093 51.738281-.003907.015626-.003907.027344-.007813.039063-.675781 8.699219-1.398437 18.25-2.125 28.421875h-4.335937c-11.589844 0-21.285157 8.265625-23.503907 19.210938h-8.035156c-12.046875 0-21.847656 9.800781-21.847656 21.847656v49.273437c0 6.910157 5.617187 12.527344 12.527343 12.527344h19.382813c6.910156 0 12.527344-5.617187 12.527344-12.527344v-66.355469c0-4.933593 4.015625-8.945312 8.949219-8.945312h3.289062c-2.558594 38.003906-4.917969 82.621094-5.210938 124.402344 0 .21875.011719.4375.027344.652344-.175781 19.722656.929688 39.453124.929688 59.160156 0 15.875 11.226562 29.171875 26.15625 32.378906v23.960938c0 9.863281 8.019531 17.882812 17.882812 17.882812h37.636719c9.859375 0 17.882813-8.019531 17.882813-17.882812v-23.21875h100.769531v23.21875c0 9.863281 8.023437 17.882812 17.882812 17.882812h37.636719c9.859375 0 17.882812-8.019531 17.882812-17.882812v-23.960938c14.925782-3.207031 26.15625-16.503906 26.15625-32.378906v-5.011719c.855469-16.507813 1.105469-35.058594.921876-54.617187.003906-.066407.011718-.132813.007812-.199219-.160156-17.0625-.664062-34.917969-1.378906-52.773438-.175782-4.460937-.347656-8.878906-.570313-13.363281-.003906-.0625-.007812-.128906-.011719-.191406-.960937-19.460938-2.03125-38.761719-3.269531-58.058594h3.3125c4.933594 0 8.945313 4.011719 8.945313 8.945312v66.355469c0 6.910157 5.621094 12.527344 12.527344 12.527344h19.386718c6.90625 0 12.523438-5.617187 12.523438-12.527344v-49.273437c.003906-12.046875-9.796875-21.847656-21.839844-21.847656zm-353.457031 68.617187h-14.375v-46.769531c0-3.757813 3.058593-6.816406 6.816406-6.816406h7.558594zm49.789062-166.660156c.855469-9.367188 8.601563-16.433594 18.015625-16.433594h16.671875v8.066406c0 8.011719 6.519531 14.53125 14.53125 14.53125h147.902344c8.011719 0 14.53125-6.519531 14.53125-14.53125v-8.066406h16.671875c9.414062 0 17.15625 7.066406 18.011719 16.433594 1.039062 11.359375 2.347656 26.265625 3.726562 43.476562h-253.785156c1.378906-17.210937 2.683594-32.117187 3.722656-43.476562zm-4.894531 58.507812h256.128906c.589844 7.746094 1.179688 15.835938 1.761719 24.1875 2.882813 41.636719 5.101563 83.027344 5.867187 124.585938 0 .082031.003907.160156.003907.238281.019531 1.101562.035156 2.195312.050781 3.285156h-271.496094c.753906-50.71875 4.265625-107.375 7.683594-152.296875zm62.648438 275.914063c0 1.570312-1.277344 2.851562-2.851563 2.851562h-37.636719c-1.574218 0-2.851562-1.28125-2.851562-2.851562v-22.28125h43.339844zm174.171874 0c0 1.570312-1.277343 2.851562-2.851562 2.851562h-37.636719c-1.574219 0-2.851562-1.28125-2.851562-2.851562v-22.28125h43.339843zm26.167969-61.941406c-.007812.128906-.011719.261718-.011719.390624v5.207032c0 9.976562-8.113281 18.089844-18.089843 18.089844h-233.648438c-9.972656 0-18.085937-8.113282-18.085937-18.089844v-5.207032c0-.128906-.003906-.261718-.011719-.390624-.742187-14.21875-1.027344-29.992188-.96875-46.644532h271.785156c.058594 16.652344-.226562 32.425782-.96875 46.644532zm52.386719-105.820313h-14.375v-53.585937h7.5625c3.757812 0 6.8125 3.058593 6.8125 6.816406zm0 0"/><path d="m384.933594 195.277344 3.96875-5.660156c2.378906-3.394532 1.558594-8.070313-1.832032-10.449219-3.394531-2.378907-8.066406-1.554688-10.449218 1.835937l-3.96875 5.660156c-2.378906 3.394532-1.558594 8.070313 1.832031 10.449219 1.3125.917969 2.8125 1.359375 4.300781 1.359375 2.359375 0 4.6875-1.113281 6.148438-3.195312zm0 0"/><path d="m409.914062 182c-3.390624-2.378906-8.066406-1.558594-10.445312 1.835938l-17.105469 24.390624c-2.378906 3.390626-1.554687 8.066407 1.835938 10.445313 1.308593.917969 2.8125 1.359375 4.296875 1.359375 2.363281 0 4.691406-1.113281 6.148437-3.195312l17.105469-24.390626c2.378906-3.390624 1.554688-8.066406-1.835938-10.445312zm0 0"/></svg>